# xmcd
#
# Track frame offsets:
#	150
#	15862
#	36517
#	51210
#	64282
#	78825
#	96770
#	111729
#	129772
#	152665
#	174720
#
# Disc length: 2570 seconds
#
# Revision: 0
# Processed by: cddbd v1.5.1PL0 Copyright (c) Steve Scherf et al.
# Submitted via: dBpowerAMP V4.0
#
DISCID=8a0a080b
DTITLE=Jim Almand - Between The Lines
DYEAR=1900
DGENRE=Country
TTITLE0=Take It From Me
TTITLE1=Let's Go To Town
TTITLE2=Sweet Summer Rain
TTITLE3=Uh-Huh
TTITLE4=Oh What A Time To Cry
TTITLE5=Between The Lines
TTITLE6=Where Do We Go From Here
TTITLE7=Desiree
TTITLE8=On Hearing The News
TTITLE9=Lost At Sea
TTITLE10=Dream
EXTD=
EXTT0=
EXTT1=
EXTT2=
EXTT3=
EXTT4=
EXTT5=
EXTT6=
EXTT7=
EXTT8=
EXTT9=
EXTT10=
PLAYORDER=
